<svg id="Capa_1" data-name="Capa 1" xmlns="http://www.w3.org/2000/svg" xmlns:xlink="http://www.w3.org/1999/xlink" viewBox="0 0 277.38 277.38"><defs><style>.cls-1{fill:url(#linear-gradient);}.cls-2{fill:#fff;}</style><linearGradient id="linear-gradient" x1="67.84" y1="209.54" x2="203.37" y2="74.01" gradientTransform="translate(138.69 -57.45) rotate(45)" gradientUnits="userSpaceOnUse"><stop offset="0" stop-color="#5ce3c1"/><stop offset="1" stop-color="#1992dd"/></linearGradient></defs><title>Adjuntos</title><circle class="cls-1" cx="138.69" cy="138.69" r="130.08" transform="translate(-57.45 138.69) rotate(-45)"/><path class="cls-2" d="M111,98.77Q126.83,83,142.63,67.18c13.94-13.91,33.77-15.74,50-4.63,17,11.64,21.15,37.24,8.58,53.63a47.72,47.72,0,0,1-4,4.65q-31.65,31.71-63.36,63.37c-7.79,7.77-19.11,9.4-28.08,4.16a23,23,0,0,1-4.73-36.28c17.57-17.7,35.25-35.28,52.88-52.92,1-1,2-2.06,3.07-3.06,3.36-3.26,8.09-3.32,11.15-.17a7.62,7.62,0,0,1-.31,11q-15.58,15.64-31.23,31.24-12.09,12.09-24.18,24.19c-3.54,3.55-3.84,8.17-.76,11.33,3.21,3.31,7.9,3.17,11.51-.44q31.6-31.58,63.18-63.2a23,23,0,1,0-32.54-32.38q-32,31.89-63.9,63.91c-13.57,13.65-14.76,36.22-2.85,50.53,13.27,15.94,35.11,19.31,51.73,8a46.06,46.06,0,0,0,6.39-5.47q27.41-27.47,54.87-54.88c4-4,9.63-3.61,12.44.84a7.56,7.56,0,0,1-1.21,9.56c-5.57,5.63-11.19,11.21-16.78,16.8q-19.5,19.5-39,39c-18.62,18.55-46,21.42-68,7.18-24.7-16-31.47-50.67-14.62-74.85a61.28,61.28,0,0,1,7-8.39Q95.54,114.31,111,98.77Z"/></svg>