<?xml version="1.0" encoding="utf-8"?>
<!-- Generator: Adobe Illustrator 24.0.3, SVG Export Plug-In . SVG Version: 6.00 Build 0)  -->
<svg version="1.1" id="Capa_1" xmlns="http://www.w3.org/2000/svg" xmlns:xlink="http://www.w3.org/1999/xlink" x="0px" y="0px"
	 viewBox="0 0 204 191" style="enable-background:new 0 0 204 191;" xml:space="preserve">
<style type="text/css">
	.st0{fill:#11101D;}
</style>
<g>
	<path class="st0" d="M180.42,51.81c-0.11-10.37-7.03-17.12-16.86-17.26c-38.66-0.56-77.31-1.2-115.97-1.37
		c-5.47-0.02-11.44,1.41-16.29,3.92c-5.55,2.87-7.55,8.92-7.51,15.25c0.17,24.4,0.24,48.8,0.66,73.2
		c0.19,10.86,7.7,17.75,18.73,17.81c18.03,0.1,36.07-0.13,54.1,0.26c3.04,0.06,6.79,1.79,8.91,4c10.18,10.6,19.91,21.62,30.93,33.73
		c0-11.4,0.23-21.08-0.09-30.73c-0.17-5.29,1.34-7.67,7.02-7.26c5.91,0.42,11.87,0.13,17.81,0.08c11.29-0.09,18.44-6.52,18.56-17.71
		C180.69,101.08,180.67,76.44,180.42,51.81z M68.71,92.92c-2.3-0.05-3.71-1.72-3.7-4.4c0.03-16.26,12.97-30.96,29.18-33.11
		c1.92-0.25,3.87-0.35,5.99-0.53c0-2.75,0-5.48,0-8.21c0-2.11,0.46-2.36,2.32-1.29c7,4.03,14,8.06,20.99,12.09
		c1.86,1.07,1.87,1.6,0.04,2.65c-6.99,4.04-13.99,8.07-20.99,12.09c-1.95,1.12-2.36,0.87-2.37-1.39c-0.01-2.68,0-5.36,0-8.14
		c-5-0.26-9.53,0.8-13.68,3.18c-8.8,5.04-13.46,12.68-13.89,22.84C72.5,91.31,71.01,92.97,68.71,92.92z M104.23,122.94
		c-1.92,0.25-3.86,0.35-5.97,0.53c0,2.77,0.01,5.5,0,8.23c-0.01,2.04-0.48,2.33-2.21,1.33c-7.05-4.05-14.09-8.11-21.12-12.18
		c-1.87-1.08-1.86-1.57,0-2.64c7-4.03,13.99-8.06,21-12.08c1.93-1.11,2.34-0.84,2.34,1.42c0.01,2.53,0.01,5.07,0.03,7.6
		c0,0.1,0.05,0.2,0.18,0.67c1.94-0.18,3.98-0.21,5.95-0.59c12.2-2.36,21.11-13,21.42-25.45c0.07-2.77,1.55-4.41,3.91-4.35
		c2.29,0.06,3.69,1.74,3.68,4.42C133.37,106.14,120.46,120.78,104.23,122.94z"/>
</g>
</svg>
