<?xml version="1.0" encoding="utf-8"?>
<!-- Generator: Adobe Illustrator 24.0.3, SVG Export Plug-In . SVG Version: 6.00 Build 0)  -->
<svg version="1.1" id="Capa_1" xmlns="http://www.w3.org/2000/svg" xmlns:xlink="http://www.w3.org/1999/xlink" x="0px" y="0px"
	 viewBox="0 0 231 220" style="enable-background:new 0 0 231 220;" xml:space="preserve">
<style type="text/css">
	.st0{fill:#11101D;}
</style>
<g>
	<path class="st0" d="M180.03,181.05c-35.05,0-70.09,0-105.14,0c-2.39-1.58-3.16-3.77-3.09-6.64c0.17-7.24,0.06-14.48,0.06-21.72
		c0-1.05,0-2.09,0-3.35c-2.2,0-3.91,0.08-5.6-0.02c-3.17-0.19-4.84-1.84-4.83-4.62c0.02-2.72,1.78-4.45,4.88-4.62
		c1.77-0.1,3.55-0.02,5.31-0.02c0-7.67,0-14.94,0-22.38c-1.14,0-2.03,0-2.93,0c-0.91,0-1.81,0.04-2.71-0.02
		c-2.78-0.18-4.57-1.99-4.57-4.58c0-2.59,1.79-4.44,4.57-4.58c1.87-0.09,3.75-0.02,5.66-0.02c0-7.68,0-14.96,0-22.41
		c-2.02,0-3.84,0.11-5.63-0.03c-2.89-0.22-4.57-1.99-4.58-4.6c-0.01-2.68,1.57-4.38,4.53-4.59c1.87-0.14,3.75-0.03,5.91-0.03
		c0-8.64,0.1-16.87-0.06-25.09c-0.06-2.87,0.7-5.06,3.09-6.64c35.05,0,70.09,0,105.14,0c2.48,1.33,3.29,3.37,3.28,6.17
		c-0.06,41.2-0.06,82.4,0,123.6C183.32,177.68,182.51,179.72,180.03,181.05z M173.84,171.61c0-39.19,0-78.08,0-117.07
		c-30.95,0-61.7,0-92.55,0c0,7.46,0,14.72,0,22.27c1.94,0,3.64-0.07,5.33,0.02c3.02,0.15,5.02,1.96,5.11,4.49
		c0.09,2.58-2.07,4.63-5.16,4.77c-1.76,0.08-3.54,0.01-5.34,0.01c0,7.67,0,14.86,0,22.39c2.06,0,3.95-0.07,5.83,0.02
		c2.68,0.13,4.68,2.15,4.68,4.58c0,2.43-2,4.44-4.68,4.57c-1.88,0.09-3.77,0.02-5.8,0.02c0,7.61,0,14.89,0,22.39
		c1.91,0,3.62-0.07,5.32,0.01c3.09,0.15,5.25,2.19,5.16,4.77c-0.09,2.53-2.1,4.34-5.12,4.48c-1.76,0.09-3.54,0.02-5.39,0.02
		c0,7.69,0,14.88,0,22.27C112.15,171.61,142.89,171.61,173.84,171.61z"/>
	<path class="st0" d="M150.07,95.86c0.06,10.61-8.45,19.28-19.01,19.33c-10.55,0.05-19.25-8.54-19.31-19.08
		c-0.06-10.57,8.45-19.19,19.06-19.3C141.39,76.71,150.01,85.23,150.07,95.86z M130.91,86.14c-5.39,0.02-9.84,4.39-9.89,9.73
		c-0.06,5.39,4.6,10.09,9.97,10.06c5.48-0.04,9.87-4.56,9.8-10.12C140.73,90.44,136.32,86.13,130.91,86.14z"/>
	<path class="st0" d="M131.03,118.89c3.32,0,6.68-0.33,9.95,0.06c9.12,1.1,15.96,8.99,16.1,18.24c0.04,2.62,0.06,5.24,0,7.85
		c-0.07,3.09-2.07,5.23-4.71,5.17c-2.56-0.06-4.37-2.1-4.43-5.09c-0.05-2.31,0.04-4.63-0.03-6.95c-0.19-6.3-4.04-10.13-10.28-10.21
		c-4.43-0.06-8.86-0.07-13.29,0c-6.26,0.1-10.07,3.99-10.13,10.26c-0.02,2.21,0.04,4.43-0.02,6.64c-0.08,3.18-1.94,5.3-4.58,5.35
		c-2.65,0.05-4.66-2.06-4.61-5.21c0.07-4.11-0.2-8.34,0.68-12.29c1.87-8.38,9.23-13.84,17.79-13.95c2.52-0.03,5.03,0,7.55,0
		C131.03,118.81,131.03,118.85,131.03,118.89z"/>
</g>
</svg>
