<?xml version="1.0" encoding="utf-8"?>
<!-- Generator: Adobe Illustrator 24.0.3, SVG Export Plug-In . SVG Version: 6.00 Build 0)  -->
<svg version="1.1" id="Capa_1" xmlns="http://www.w3.org/2000/svg" xmlns:xlink="http://www.w3.org/1999/xlink" x="0px" y="0px"
	 viewBox="0 0 237 210" style="enable-background:new 0 0 237 210;" xml:space="preserve">
<style type="text/css">
	.st0{fill:#11101D;}
</style>
<path class="st0" d="M118.25,35.65c25.63,0.55,46.53,6.81,63.73,22.68c13.79,12.72,21.02,28.42,19.09,47.46
	c-1.47,14.48-8.43,26.39-19.05,36.09c-17.35,15.85-38.26,22.32-61.37,22.51c-3.41,0.03-6.39,0.72-9.44,2.2
	c-15.6,7.56-31.96,12.11-49.47,11.67c-0.7-0.02-1.53,0.17-2.08-0.14c-1.23-0.69-2.9-1.42-3.29-2.52c-0.38-1.1,0.2-2.99,1.03-3.97
	c2.46-2.89,5.53-5.28,7.82-8.27c2.23-2.9,3.81-6.3,5.64-9.5c1.11-1.93,0.51-3.15-1.36-4.37c-9.71-6.37-17.68-14.43-22.9-24.91
	c-9.75-19.54-8.16-38.45,4.36-56.11c12.41-17.5,30.24-26.68,50.86-30.77C108.08,36.46,114.51,36.1,118.25,35.65z M103.11,78.55
	c0,13.78,0,27.24,0,40.78c2.51,0,4.83,0,7.49,0c0-7.33,0-14.41,0-21.49c3.28,5.36,5.97,10.83,8.89,16.17
	c0.47,0.87,1.93,1.65,2.93,1.64c1-0.01,2.41-0.83,2.9-1.7c2.52-4.55,4.79-9.23,7.16-13.86c0.42-0.81,0.91-1.58,1.36-2.37
	c0.22,0.08,0.44,0.15,0.66,0.23c0,7.16,0,14.31,0,21.63c1.42,0,2.51,0,3.61,0c1.16,0,2.32,0,3.5,0c0-13.9,0-27.35,0-41.05
	c-1.02,0-1.83,0.11-2.59-0.02c-3.14-0.53-4.78,0.81-6.1,3.7c-2.86,6.27-6.15,12.35-9.28,18.5c-0.33,0.64-0.79,1.21-1.37,2.08
	c-3.87-7.59-7.52-14.82-11.28-21.99c-0.48-0.92-1.48-1.98-2.4-2.17C106.9,78.3,105.07,78.55,103.11,78.55z M68.52,111.5
	c5.55,7.24,15.32,10.03,23.58,6.7c4.37-1.76,7.1-4.86,7.39-9.65c0.29-4.83-1.71-8.6-6.06-10.84c-2.03-1.05-4.25-1.71-6.39-2.54
	c-2.04-0.8-4.24-1.35-6.06-2.5c-0.96-0.61-1.72-2.24-1.73-3.42c-0.01-0.78,1.44-2.22,2.29-2.26c3.11-0.15,6.28-0.05,9.36,0.39
	c1.56,0.22,2.99,1.37,4.59,2.16c1.3-2.08,2.5-4,3.67-5.88c-5.95-5.18-14.92-6.52-21.54-3.39c-7.38,3.49-8.51,13.11-2,18.02
	c1.72,1.3,3.83,2.13,5.84,2.97c2.57,1.07,5.39,1.67,7.8,3.01c1.21,0.68,2.43,2.58,2.38,3.89c-0.04,1.12-1.69,2.72-2.95,3.13
	c-1.92,0.62-4.32,1.02-6.13,0.39c-3.29-1.13-6.29-3.09-9.46-4.73C71.88,108.14,70.2,109.82,68.52,111.5z M142.5,111.49
	c5.37,6.41,12.07,8.95,20.11,7.76c6.16-0.91,10.43-4.94,10.91-9.92c0.6-6.2-2.15-10.41-8.49-12.85c-2.42-0.93-4.95-1.59-7.37-2.52
	c-2.24-0.86-5.04-1.78-4.38-4.8c0.58-2.66,3.43-3.11,5.67-2.81c3.57,0.48,7.06,1.56,11.05,2.5c0.85-1.35,2.09-3.33,3.42-5.44
	c-6.57-4.7-13.41-6.23-20.87-3.48c-5.21,1.92-7.52,6.14-6.78,11.61c0.68,5.03,4.12,7.53,8.42,9.21c3.16,1.24,6.48,2.13,9.48,3.65
	c1.13,0.57,2.13,2.45,2.18,3.78c0.04,0.97-1.41,2.54-2.5,2.88c-2.03,0.64-4.5,1.26-6.39,0.65c-3.38-1.07-6.47-3.06-10.01-4.83
	C145.86,108,144.27,109.65,142.5,111.49z"/>
</svg>
