<?xml version="1.0" encoding="utf-8"?>
<!-- Generator: Adobe Illustrator 24.0.3, SVG Export Plug-In . SVG Version: 6.00 Build 0)  -->
<svg version="1.1" id="Capa_1" xmlns="http://www.w3.org/2000/svg" xmlns:xlink="http://www.w3.org/1999/xlink" x="0px" y="0px"
	 viewBox="0 0 290 249" style="enable-background:new 0 0 290 249;" xml:space="preserve">
<style type="text/css">
	.st0{fill:#11101D;}
</style>
<g>
	<path class="st0" d="M231.17,126.99c-8.24-42.28-50.48-69.91-92.48-60.5c-34.38,7.71-59.42,37.42-60.8,72.2
		c-0.57,14.43,2.61,28,9.47,40.72c0.42,0.79,0.55,1.97,0.32,2.84c-1.51,5.97-3.15,11.9-4.76,17.85c-1.72,6.39-3.44,12.78-5.22,19.39
		c0.57-0.04,0.78-0.03,0.97-0.07c12.52-2.96,25.03-5.96,37.57-8.84c1.13-0.26,2.6-0.1,3.63,0.42c15.33,7.63,31.41,10.26,48.3,7.34
		C211.23,210.89,239.52,169.81,231.17,126.99z M194.47,163.27c-0.73,9.23-7.7,15.6-17.39,15.92c-5.61,0.19-10.74-1.8-15.94-3.51
		c-14.76-4.83-25.59-14.72-34.6-26.91c-4.03-5.45-8.04-10.96-9.7-17.7c-0.52-2.11-0.75-4.29-1.11-6.44
		c0.15-6.46,2.71-11.73,7.23-16.13c2.11-2.06,7.89-3.07,10.42-1.67c0.94,0.52,1.83,1.53,2.27,2.52c2.23,5.07,4.36,10.19,6.36,15.35
		c0.34,0.89,0.26,2.29-0.23,3.09c-1.36,2.2-2.91,4.3-4.62,6.24c-1.34,1.52-1.57,2.81-0.51,4.57c6.29,10.44,14.99,18.03,26.34,22.58
		c1.71,0.69,3.02,0.42,4.17-1.03c1.83-2.31,3.79-4.52,5.53-6.89c1.21-1.66,2.6-2.16,4.42-1.31c5.32,2.51,10.62,5.05,15.93,7.59
		C194.66,160.32,194.59,161.81,194.47,163.27z"/>
</g>
</svg>
