<svg id="Capa_1" data-name="Capa 1" xmlns="http://www.w3.org/2000/svg" viewBox="0 0 200 200"><defs><style>.cls-1{fill:#ff8d25;}.cls-2{fill:#999;}</style></defs><title>AIO</title><path class="cls-1" d="M120,125h0a2.52,2.52,0,0,0-2.5,2.51A2.49,2.49,0,0,0,120,130h0a2.51,2.51,0,0,1,2.5,2.5A2.5,2.5,0,0,0,125,135h0a2.5,2.5,0,0,0,2.5-2.5A7.52,7.52,0,0,0,120,125Z"/><path class="cls-2" d="M90,135h5a2.5,2.5,0,0,0,0-5H90a2.51,2.51,0,0,0,0,5Z"/><path class="cls-2" d="M91,124.62l4.69,1.7A2.5,2.5,0,0,0,99,123.54a2.54,2.54,0,0,0-1.62-1.92l-4.7-1.7a2.5,2.5,0,0,0-1.7,4.7Z"/><path class="cls-2" d="M98.16,139.16a2.5,2.5,0,0,0-2.46-.43L91,140.44a2.5,2.5,0,1,0,1.71,4.7l4.7-1.72A2.49,2.49,0,0,0,99,141.51,2.52,2.52,0,0,0,98.16,139.16Z"/><path class="cls-2" d="M150,130h-5a2.5,2.5,0,0,0,0,5h5a2.5,2.5,0,1,0,0-5Z"/><path class="cls-2" d="M143.52,126.43h0a2.47,2.47,0,0,0,.86-.15l4.7-1.71a2.51,2.51,0,0,0,1.6-1.92,2.5,2.5,0,0,0-3.32-2.78l-4.69,1.71a2.5,2.5,0,0,0,.85,4.85Z"/><path class="cls-2" d="M149.09,140.39l-4.7-1.71a2.5,2.5,0,0,0-1.71,4.7l4.7,1.71a2.5,2.5,0,0,0,1.71-4.7Z"/><path class="cls-2" d="M76.67,35A17.5,17.5,0,0,0,60,52.5a2.5,2.5,0,0,0,5,0,12.43,12.43,0,0,1,4.62-9.7,12.65,12.65,0,0,1,10.6-2.52,12.51,12.51,0,0,1-.93,24.59A5,5,0,0,0,75,69.8v2.7a2.5,2.5,0,0,0,5,0V69.82A17.5,17.5,0,0,0,76.67,35Z"/><path class="cls-2" d="M79.28,80.72a3.13,3.13,0,0,0-.83-.52,2.59,2.59,0,0,0-2.72.52,2.93,2.93,0,0,0-.53.83,2.38,2.38,0,0,0-.2,1,2.83,2.83,0,0,0,0,.5,1.7,1.7,0,0,0,.15.45,1.88,1.88,0,0,0,.22.45c.1.12.2.25.31.37A2.59,2.59,0,0,0,77.5,85a2.08,2.08,0,0,0,1-.2,2.93,2.93,0,0,0,.83-.53l.29-.37a1.6,1.6,0,0,0,.23-.45A1.7,1.7,0,0,0,80,83a2.83,2.83,0,0,0,0-.5,2.38,2.38,0,0,0-.2-1A3.13,3.13,0,0,0,79.28,80.72Z"/><path class="cls-2" d="M135,85V35a10,10,0,0,0-10-10H35A10,10,0,0,0,25,35V85A10,10,0,0,0,35,95h2.5v15A5,5,0,0,0,46,113.53a1.54,1.54,0,0,0,.17-.19L61.18,95H125A10,10,0,0,0,135,85ZM60,90l-.12,0a5,5,0,0,0-.94.24,1.85,1.85,0,0,0-.37.25,2.2,2.2,0,0,0-.41.33l-.1.08L42.5,110V92.5A2.5,2.5,0,0,0,40,90H35a5,5,0,0,1-5-5V35a5,5,0,0,1,5-5h90a5,5,0,0,1,5,5V85a5,5,0,0,1-5,5Z"/><path class="cls-2" d="M165,105h-2.5V90A5,5,0,0,0,154,86.47a1.46,1.46,0,0,0-.16.19l-15,18.34H75a10,10,0,0,0-10,10v50a10,10,0,0,0,10,10h90a10,10,0,0,0,10-10V115A10,10,0,0,0,165,105Zm5,60a5,5,0,0,1-5,5H75a5,5,0,0,1-5-5V115a5,5,0,0,1,5-5h65a2.48,2.48,0,0,0,1-.22l.22-.15a2.64,2.64,0,0,0,.62-.48s.06,0,.09-.07L157.5,90V107.5A2.5,2.5,0,0,0,160,110h5a5,5,0,0,1,5,5v50Z"/><path class="cls-1" d="M122.1,115.12a17.5,17.5,0,0,0-13,31,2.44,2.44,0,0,1,.94,1.92V150a5,5,0,0,0,2.5,4.3v3.2a7.54,7.54,0,0,0,3.12,6.08A7.45,7.45,0,0,0,120,165a7.71,7.71,0,0,0,2.47-.41,7.59,7.59,0,0,0,5-7.35V154.3A5,5,0,0,0,130,150v-1.92a2.56,2.56,0,0,1,1-2,17.38,17.38,0,0,0,6.28-16.41A17.71,17.71,0,0,0,122.1,115.12Zm-1.22,44.73a2.52,2.52,0,0,1-2.33-.33,2.47,2.47,0,0,1-1-2V155h5v2.25A2.68,2.68,0,0,1,120.88,159.85Zm7-17.64a7.51,7.51,0,0,0-2.86,5.87V150H115v-1.93a7.44,7.44,0,0,0-2.82-5.83A12.5,12.5,0,0,1,120,120a13.13,13.13,0,0,1,1.54.09,12.59,12.59,0,0,1,10.82,10.38A12.43,12.43,0,0,1,127.86,142.21Z"/></svg>