<svg id="Capa_1" data-name="Capa 1" xmlns="http://www.w3.org/2000/svg" viewBox="0 0 200 200"><defs><style>.cls-1{fill:#999;}.cls-2{fill:#00c7ea;}</style></defs><title>AIO</title><path class="cls-1" d="M154.29,66.66l-41-41a2.2,2.2,0,0,0-1.55-.64H53.12a8.06,8.06,0,0,0-8,8.06V166.94a8.06,8.06,0,0,0,8,8.06h93.76a8.06,8.06,0,0,0,8.05-8.06V68.21A2.2,2.2,0,0,0,154.29,66.66ZM113.92,32.5,147.43,66H117.58a3.67,3.67,0,0,1-3.66-3.67Zm36.62,134.44a3.68,3.68,0,0,1-3.66,3.67H53.12a3.68,3.68,0,0,1-3.66-3.67V33.06a3.68,3.68,0,0,1,3.66-3.67h56.4v33a8.07,8.07,0,0,0,8.06,8.06h33v96.53Z"/><path class="cls-2" d="M71.58,87.26a6.59,6.59,0,1,0,6.59,6.59A6.6,6.6,0,0,0,71.58,87.26Zm0,8.78a2.2,2.2,0,1,1,2.2-2.19A2.2,2.2,0,0,1,71.58,96Z"/><path class="cls-1" d="M128.42,87.26H91.5a6.59,6.59,0,1,0,0,13.18h36.92a6.59,6.59,0,1,0,0-13.18Zm0,8.78H91.5a2.2,2.2,0,0,1,0-4.39h36.92a2.2,2.2,0,1,1,0,4.39Z"/><path class="cls-2" d="M71.58,104.83a6.6,6.6,0,1,0,6.59,6.6A6.6,6.6,0,0,0,71.58,104.83Zm0,8.79a2.2,2.2,0,1,1,2.2-2.19A2.2,2.2,0,0,1,71.58,113.62Z"/><path class="cls-1" d="M128.42,104.83H91.5a6.6,6.6,0,0,0,0,13.19h36.92a6.6,6.6,0,0,0,0-13.19Zm0,8.79H91.5a2.2,2.2,0,0,1,0-4.39h36.92a2.2,2.2,0,1,1,0,4.39Z"/><path class="cls-2" d="M71.58,122.41A6.6,6.6,0,1,0,78.17,129,6.6,6.6,0,0,0,71.58,122.41Zm0,8.79a2.2,2.2,0,1,1,2.2-2.2A2.2,2.2,0,0,1,71.58,131.2Z"/><path class="cls-1" d="M128.42,122.41H91.5a6.6,6.6,0,0,0,0,13.19h36.92a6.6,6.6,0,0,0,0-13.19Zm0,8.79H91.5a2.2,2.2,0,0,1,0-4.39h36.92a2.2,2.2,0,1,1,0,4.39Z"/></svg>