<svg id="Capa_1" data-name="Capa 1" xmlns="http://www.w3.org/2000/svg" xmlns:xlink="http://www.w3.org/1999/xlink" viewBox="0 0 500 500"><defs><style>.cls-1{fill:#ff6e00;}.cls-2{clip-path:url(#clip-path);}.cls-3{clip-path:url(#clip-path-2);}.cls-4{clip-path:url(#clip-path-3);}.cls-5{clip-path:url(#clip-path-4);}.cls-6{fill:#fff;}.cls-7{fill:#f09d18;}.cls-8{fill:#00b6d6;}.cls-9{fill:#e35278;}</style><clipPath id="clip-path"><path class="cls-1" d="M76.2,95.5,90.77,80.26a.79.79,0,0,0,.19-.71.76.76,0,0,0-.5-.53l-5.39-1.49a.75.75,0,0,0-.77.21l-8.81,9.32a.85.85,0,0,0-.21.54L74.88,95a.78.78,0,0,0,1.32.52Z"/></clipPath><clipPath id="clip-path-2"><path class="cls-1" d="M100.87,89a.76.76,0,0,0-1.25-.26L85,104a.77.77,0,0,0,.57,1.29l7.37-.71a.84.84,0,0,0,.52-.24l9-9.2a.77.77,0,0,0,.16-.78Z"/></clipPath><clipPath id="clip-path-3"><path class="cls-1" d="M163.08,14.44a.85.85,0,0,0-.24-.42.73.73,0,0,0-.43-.21,18.52,18.52,0,0,0-3.89-.17c-7.5.34-22.92,3.59-42.05,22.1a98.9,98.9,0,0,0-8.83,9.65l-14,3.11a1,1,0,0,0-.46.29L82.85,60.52a.83.83,0,0,0-.17.77.89.89,0,0,0,.55.6l14.09,4.48a17.71,17.71,0,0,0,.79,9.14l-5.18,5.18a.75.75,0,0,0-.24.62.84.84,0,0,0,.24.61l2.54,2.46L98,86.8a.85.85,0,0,0,.64.21.73.73,0,0,0,.6-.26l4.92-5.41a17.67,17.67,0,0,0,9.19.39l5.09,13.89a.8.8,0,0,0,.62.52.85.85,0,0,0,.76-.2l11.28-10.78a.85.85,0,0,0,.26-.47l2.51-14.16a98.18,98.18,0,0,0,9.24-9.24c17.68-19.91,20.27-35.48,20.28-43A19.51,19.51,0,0,0,163.08,14.44ZM130.2,56.81a8.6,8.6,0,1,1,8.5-8.71A8.61,8.61,0,0,1,130.2,56.81Z"/></clipPath><clipPath id="clip-path-4"><path class="cls-1" d="M95,88.81l-4.14-4a.49.49,0,0,0-.69,0l-14.37,15a.35.35,0,0,0-.07.12.66.66,0,0,0-.08.21l-.33,4.67a.39.39,0,0,0,.37.36l4.64-.55a.43.43,0,0,0,.28-.12l.06,0,14.35-15A.48.48,0,0,0,95,88.81Z"/></clipPath></defs><title>logos y colores</title><path class="cls-1" d="M76.2,95.5,90.77,80.26a.79.79,0,0,0,.19-.71.76.76,0,0,0-.5-.53l-5.39-1.49a.75.75,0,0,0-.77.21l-8.81,9.32a.85.85,0,0,0-.21.54L74.88,95a.78.78,0,0,0,1.32.52Z"/><g class="cls-2"><rect class="cls-1" x="2.71" y="-30.75" width="490.18" height="526.05"/></g><path class="cls-1" d="M100.87,89a.76.76,0,0,0-1.25-.26L85,104a.77.77,0,0,0,.57,1.29l7.37-.71a.84.84,0,0,0,.52-.24l9-9.2a.77.77,0,0,0,.16-.78Z"/><g class="cls-3"><rect class="cls-1" x="2.71" y="-30.75" width="490.18" height="526.05"/></g><path class="cls-1" d="M163.08,14.44a.85.85,0,0,0-.24-.42.73.73,0,0,0-.43-.21,18.52,18.52,0,0,0-3.89-.17c-7.5.34-22.92,3.59-42.05,22.1a98.9,98.9,0,0,0-8.83,9.65l-14,3.11a1,1,0,0,0-.46.29L82.85,60.52a.83.83,0,0,0-.17.77.89.89,0,0,0,.55.6l14.09,4.48a17.71,17.71,0,0,0,.79,9.14l-5.18,5.18a.75.75,0,0,0-.24.62.84.84,0,0,0,.24.61l2.54,2.46L98,86.8a.85.85,0,0,0,.64.21.73.73,0,0,0,.6-.26l4.92-5.41a17.67,17.67,0,0,0,9.19.39l5.09,13.89a.8.8,0,0,0,.62.52.85.85,0,0,0,.76-.2l11.28-10.78a.85.85,0,0,0,.26-.47l2.51-14.16a98.18,98.18,0,0,0,9.24-9.24c17.68-19.91,20.27-35.48,20.28-43A19.51,19.51,0,0,0,163.08,14.44ZM130.2,56.81a8.6,8.6,0,1,1,8.5-8.71A8.61,8.61,0,0,1,130.2,56.81Z"/><g class="cls-4"><rect class="cls-1" x="2.71" y="-30.75" width="490.18" height="526.05"/></g><path class="cls-1" d="M95,88.81l-4.14-4a.49.49,0,0,0-.69,0l-14.37,15a.35.35,0,0,0-.07.12.66.66,0,0,0-.08.21l-.33,4.67a.39.39,0,0,0,.37.36l4.64-.55a.43.43,0,0,0,.28-.12l.06,0,14.35-15A.48.48,0,0,0,95,88.81Z"/><g class="cls-5"><rect class="cls-1" x="2.71" y="-30.75" width="490.18" height="526.05"/></g><path class="cls-1" d="M418.64,81.35a239.13,239.13,0,0,0-242.32-58.3l-4,1.31,4.86,20.43,4.77-1.57A216.74,216.74,0,0,1,250,32.3C370,32.3,467.7,130,467.7,250S370,467.7,250,467.7,32.3,370,32.3,250A215.69,215.69,0,0,1,75.58,119.87l2.33-3.12L63.33,101.44l-3.28,4.29A238.54,238.54,0,0,0,81.36,418.64,238.5,238.5,0,1,0,418.64,81.35Z"/><path class="cls-6" d="M164.41,378.94q-1.08-2.78-2-5.34t-1.73-5H142.31q-.94,2.44-1.84,5c-.6,1.7-1.24,3.48-1.91,5.32h-3.85q2.14-5.88,4-11c1.28-3.38,2.52-6.58,3.75-9.6s2.43-5.92,3.64-8.71,2.47-5.57,3.79-8.37h3.26q2,4.17,3.78,8.37c1.19,2.78,2.4,5.69,3.63,8.7s2.46,6.22,3.73,9.61,2.64,7,4.16,11Zm-12.95-33.41q-2.06,4.7-4,9.52t-4,10.41h16.06c-1.38-3.72-2.74-7.2-4.05-10.42S152.82,348.65,151.46,345.53Z"/><path class="cls-6" d="M180.76,379.43a11.65,11.65,0,0,1-3.12-.47,5.41,5.41,0,0,1-2.23-1.25,5.27,5.27,0,0,1-1.36-2.17,10.27,10.27,0,0,1-.46-3.34V337.44l3.53-.65v35.3a7.35,7.35,0,0,0,.24,2.09,2.8,2.8,0,0,0,.74,1.25,2.87,2.87,0,0,0,1.27.68,15.49,15.49,0,0,0,1.88.38Z"/><path class="cls-6" d="M194.61,379.43a11.79,11.79,0,0,1-3.13-.47,5.43,5.43,0,0,1-2.22-1.25,5.27,5.27,0,0,1-1.36-2.17,10.25,10.25,0,0,1-.47-3.34V337.44l3.54-.65v35.3a7.35,7.35,0,0,0,.24,2.09,2.88,2.88,0,0,0,.73,1.25,3,3,0,0,0,1.28.68,15.1,15.1,0,0,0,1.88.38Z"/><path class="cls-6" d="M213.94,341.3h3.7v37.64h-3.7Z"/><path class="cls-6" d="M227.19,351.84c1.05-.29,2.46-.62,4.24-1a32.46,32.46,0,0,1,6.51-.55,13.47,13.47,0,0,1,5.35.93,8.24,8.24,0,0,1,3.42,2.63,10.91,10.91,0,0,1,1.83,4.1,23.91,23.91,0,0,1,.54,5.27v15.7h-3.53V364.38a26.73,26.73,0,0,0-.41-5.05,8.51,8.51,0,0,0-1.36-3.37,5.23,5.23,0,0,0-2.49-1.87,11.41,11.41,0,0,0-3.89-.57,29.93,29.93,0,0,0-4.32.27,13.53,13.53,0,0,0-2.36.49v24.66h-3.53Z"/><path class="cls-6" d="M304.47,360.09a23.78,23.78,0,0,1-1.41,8.52,17.72,17.72,0,0,1-3.83,6.17,15.69,15.69,0,0,1-5.62,3.72,19.07,19.07,0,0,1-13.58,0,15.78,15.78,0,0,1-5.62-3.72,17.86,17.86,0,0,1-3.83-6.17,26.39,26.39,0,0,1,0-17,17.87,17.87,0,0,1,3.83-6.13,15.52,15.52,0,0,1,5.62-3.72,19.07,19.07,0,0,1,13.58,0,15.43,15.43,0,0,1,5.62,3.72,17.72,17.72,0,0,1,3.83,6.13A23.59,23.59,0,0,1,304.47,360.09Zm-3.91,0a21.81,21.81,0,0,0-1-6.82,14.86,14.86,0,0,0-2.77-5.13,11.81,11.81,0,0,0-4.31-3.23,15.09,15.09,0,0,0-11.36,0,11.81,11.81,0,0,0-4.31,3.23,14.86,14.86,0,0,0-2.77,5.13,24.19,24.19,0,0,0,0,13.63,14.91,14.91,0,0,0,2.77,5.14,12.11,12.11,0,0,0,4.31,3.26,14.72,14.72,0,0,0,11.36,0,12.11,12.11,0,0,0,4.31-3.26,14.91,14.91,0,0,0,2.77-5.14A21.74,21.74,0,0,0,300.56,360.09Z"/><path class="cls-6" d="M312.51,351.84c1-.29,2.46-.62,4.23-1a32.64,32.64,0,0,1,6.52-.55,13.5,13.5,0,0,1,5.35.93,8.24,8.24,0,0,1,3.42,2.63,10.74,10.74,0,0,1,1.82,4.1,23.89,23.89,0,0,1,.55,5.27v15.7h-3.54V364.38a26.81,26.81,0,0,0-.4-5.05A8.37,8.37,0,0,0,329.1,356a5.26,5.26,0,0,0-2.5-1.87,11.35,11.35,0,0,0-3.88-.57,29.83,29.83,0,0,0-4.32.27,13.53,13.53,0,0,0-2.36.49v24.66h-3.53Z"/><path class="cls-6" d="M341.73,364.87a18,18,0,0,1,1-6.44,14.13,14.13,0,0,1,2.78-4.58,10.77,10.77,0,0,1,3.9-2.75,11.88,11.88,0,0,1,4.54-.89,10.61,10.61,0,0,1,8.23,3.36q3.06,3.38,3.07,10.37c0,.29,0,.59,0,.88s0,.56-.08.81H345.47q.16,5.16,2.55,7.93c1.6,1.84,4.13,2.77,7.61,2.77a15.42,15.42,0,0,0,4.56-.54,19.55,19.55,0,0,0,2.45-.93l.65,3a14.8,14.8,0,0,1-2.85,1,18.4,18.4,0,0,1-4.92.6,16.45,16.45,0,0,1-6.3-1.09,11.14,11.14,0,0,1-4.29-3.05,11.86,11.86,0,0,1-2.44-4.64A21.43,21.43,0,0,1,341.73,364.87Zm19.92-2.23a11,11,0,0,0-2.06-6.84,6.68,6.68,0,0,0-5.54-2.44,7.32,7.32,0,0,0-3.39.76,8.59,8.59,0,0,0-2.61,2,9.6,9.6,0,0,0-1.74,3,12.26,12.26,0,0,0-.73,3.53Z"/><path class="cls-7" d="M164.11,222.83h7.58V221.2c0-28.4-10.28-38.41-35.17-38.41-6.77,0-26.52,1.89-26.52,11.9v8.66H92.42v-13c0-18.93,32.46-23,44.36-23,43,0,53.3,23,53.3,52.21v65.2c0,4.06,2.17,6,5.95,6h11.36v16H188.73c-11.64,0-16.24-5.14-16.24-16.23,0-6,.27-10,.27-10h-.54c.27,0-11.09,29.5-45.17,29.5-22.73,0-46.27-13.27-46.27-40.31C80.78,224.45,140.57,222.83,164.11,222.83ZM130,294.25c26,0,41.67-27.05,41.67-50.59v-6.22h-7.85c-21.37,0-64.12.54-64.12,31.11C99.72,281.27,109.73,294.25,130,294.25Z"/><path class="cls-8" d="M229.84,192.52c0-3.78-2.16-5.94-6-5.94H212.53v-16h19.21c11.63,0,16.5,4.87,16.5,16.5v97.67c0,4.06,2.16,6,5.95,6h11.36v16h-19.2c-11.64,0-16.51-4.87-16.51-16.51Zm-.54-76h17.86v23.27H229.3Z"/><path class="cls-9" d="M347.26,167.37c39.76,0,72,30.3,72,70.61,0,41.12-32.2,72-71.7,72-39.76,0-71.95-30.85-71.95-72C275.57,197.67,307.76,167.37,347.26,167.37Zm.26,126.07c29,0,52.76-23.8,52.76-55.46,0-30.85-23.81-53.84-52.76-53.84-29.21,0-53,23-53,53.84C294.5,269.64,318.31,293.44,347.52,293.44Z"/></svg>