<?xml version="1.0" encoding="utf-8"?>
<!-- Generator: Adobe Illustrator 23.0.0, SVG Export Plug-In . SVG Version: 6.00 Build 0)  -->
<svg version="1.1" id="Capa_1" xmlns="http://www.w3.org/2000/svg" xmlns:xlink="http://www.w3.org/1999/xlink" x="0px" y="0px"
	 viewBox="0 0 200 200" style="enable-background:new 0 0 200 200;" xml:space="preserve">
<style type="text/css">
	.st0{fill:#999999;}
	.st1{fill:none;}
	.st2{fill:#02C1E5;}
	.st3{fill:#0F7A79;}
	.st4{fill:#F6565B;}
	.st5{fill:#F5D339;}
	.st6{fill:#FF6E00;}
	.st7{fill:#B0F5F5;}
</style>
<g>
	<g>
		<path class="st0" d="M136.16,121.69l-8.56-8.56c0.46-0.95,0.86-1.92,1.21-2.91h12.09c1.88,0,3.41-1.53,3.41-3.41V93.18
			c0-1.88-1.53-3.41-3.41-3.41h-12.09c-0.35-0.99-0.76-1.96-1.21-2.91l8.56-8.56c1.33-1.33,1.33-3.49,0-4.82l-9.64-9.64
			c-1.33-1.33-3.49-1.33-4.82,0l-8.56,8.56c-0.95-0.46-1.92-0.86-2.91-1.21V59.09c0-1.88-1.53-3.41-3.41-3.41H93.18
			c-1.88,0-3.41,1.53-3.41,3.41v12.09c-0.99,0.35-1.96,0.76-2.91,1.21l-8.56-8.56c-1.33-1.33-3.49-1.33-4.82,0l-9.64,9.64
			c-1.33,1.33-1.33,3.49,0,4.82l8.56,8.56c-0.46,0.95-0.86,1.92-1.21,2.91H59.09c-1.88,0-3.41,1.53-3.41,3.41v13.64
			c0,1.88,1.53,3.41,3.41,3.41h12.09c0.35,0.99,0.76,1.96,1.21,2.91l-8.56,8.56c-1.33,1.33-1.33,3.49,0,4.82l9.64,9.64
			c1.33,1.33,3.49,1.33,4.82,0l8.56-8.56c0.95,0.46,1.92,0.86,2.91,1.21v12.09c0,1.88,1.53,3.41,3.41,3.41h13.64
			c1.88,0,3.41-1.53,3.41-3.41v-12.09c0.99-0.35,1.96-0.76,2.91-1.21l8.56,8.56c1.33,1.33,3.49,1.33,4.82,0l9.64-9.64
			C137.49,125.18,137.49,123.03,136.16,121.69L136.16,121.69z M124.1,128.93l-7.93-7.93c-1.1-1.1-2.81-1.32-4.14-0.52
			c-1.91,1.13-3.96,1.98-6.07,2.53c-1.5,0.39-2.55,1.75-2.55,3.3v11.2h-6.82v-11.2c0-1.55-1.05-2.91-2.55-3.3
			c-2.12-0.55-4.16-1.4-6.07-2.53c-1.34-0.79-3.04-0.58-4.14,0.52l-7.93,7.93l-4.82-4.82l7.93-7.93c1.1-1.1,1.32-2.81,0.52-4.14
			c-1.13-1.91-1.98-3.96-2.53-6.07c-0.39-1.5-1.75-2.55-3.3-2.55H62.5v-6.82h11.2c1.55,0,2.91-1.05,3.3-2.55
			c0.55-2.12,1.4-4.16,2.53-6.07c0.79-1.34,0.57-3.04-0.53-4.14l-7.93-7.93l4.82-4.82L83.82,79c1.1,1.1,2.81,1.32,4.14,0.52
			c1.91-1.13,3.96-1.98,6.07-2.53c1.5-0.39,2.55-1.75,2.55-3.3V62.5h6.82v11.2c0,1.55,1.05,2.91,2.55,3.3
			c2.12,0.55,4.16,1.4,6.07,2.53c1.34,0.79,3.04,0.58,4.14-0.52l7.93-7.93l4.82,4.82L121,83.82c-1.1,1.1-1.32,2.8-0.52,4.14
			c1.13,1.91,1.98,3.96,2.53,6.07c0.39,1.5,1.75,2.55,3.3,2.55h11.2v6.82h-11.2c-1.55,0-2.91,1.05-3.3,2.55
			c-0.55,2.12-1.4,4.16-2.53,6.07c-0.79,1.34-0.57,3.04,0.53,4.14l7.93,7.93L124.1,128.93z M100,82.96
			c-9.4,0-17.04,7.65-17.04,17.04c0,9.4,7.65,17.04,17.04,17.04c9.4,0,17.04-7.65,17.04-17.04C117.04,90.6,109.4,82.96,100,82.96
			L100,82.96z M100,110.23c-5.64,0-10.23-4.59-10.23-10.23c0-5.64,4.59-10.23,10.23-10.23s10.23,4.59,10.23,10.23
			C110.23,105.64,105.64,110.23,100,110.23L100,110.23z M100,110.23"/>
	</g>
	<path class="st3" d="M159.69,144.75c-0.65,0.22-1.3,0.43-1.96,0.65c10.28-12.9,15.95-28.76,15.95-45.4
		c0-19.16-7.71-37.82-21.78-51.89C137.85,34.06,119.2,26.32,100,26.32c-2.38,0-4.32,1.93-4.32,4.32c0,2.38,1.93,4.32,4.32,4.32
		c17.11,0,33.37,6.84,45.79,19.25c12.42,12.42,19.25,28.68,19.25,45.79c0,19.88-9.22,38.52-25.29,51.14
		c-1.88,1.47-2.2,4.18-0.73,6.06c1.35,1.73,3.2,1.91,5.3,1.41c3.48-0.84,14.72-4.55,18.1-5.67c2.26-0.76,3.48-3.2,2.73-5.46
		C164.39,145.21,161.95,143.99,159.69,144.75L159.69,144.75z"/>
	<path class="st2" d="M100,165.04c-17.11,0-33.37-6.84-45.79-19.25C41.8,133.37,34.96,117.11,34.96,100
		c0-20.42,9.63-39.37,26.42-52.01c1.69-1.27,2.21-3.59,1.22-5.46c-0.99-1.87-3.19-2.75-5.2-2.07c-0.89,0.3-19.63,6.55-19.82,6.61
		c-2.26,0.76-3.48,3.2-2.73,5.46c0.76,2.26,3.2,3.49,5.46,2.73l1.94-0.65C31.62,67.99,26.32,84.18,26.32,100
		c0,19.16,7.71,37.82,21.78,51.89c14.02,14.02,32.67,21.78,51.89,21.78c2.38,0,4.32-1.93,4.32-4.32
		C104.32,166.97,102.38,165.04,100,165.04L100,165.04z"/>
</g>
</svg>
