<?xml version="1.0" encoding="utf-8"?>
<!-- Generator: Adobe Illustrator 23.0.0, SVG Export Plug-In . SVG Version: 6.00 Build 0)  -->
<svg version="1.1" id="Capa_1" xmlns="http://www.w3.org/2000/svg" xmlns:xlink="http://www.w3.org/1999/xlink" x="0px" y="0px"
	 viewBox="0 0 200 200" style="enable-background:new 0 0 200 200;" xml:space="preserve">
<style type="text/css">
	.st0{fill:#999999;}
	.st1{fill:none;}
	.st2{fill:#02C1E5;}
	.st3{fill:#0F7A79;}
	.st4{fill:#F6565B;}
	.st5{fill:#F5D339;}
	.st6{fill:#FF6E00;}
	.st7{fill:#B0F5F5;}
</style>
<g>
	<path class="st5" d="M140.83,145.05H59.17c-2.29,0-4.15,1.86-4.15,4.15c0,2.29,1.86,4.15,4.15,4.15h81.66
		c2.29,0,4.15-1.85,4.15-4.15C144.98,146.9,143.12,145.05,140.83,145.05L140.83,145.05z M140.83,145.05"/>
	<path class="st5" d="M140.83,164.82H59.17c-2.29,0-4.15,1.86-4.15,4.15c0,2.29,1.86,4.15,4.15,4.15h81.66
		c2.29,0,4.15-1.86,4.15-4.15C144.98,166.68,143.12,164.82,140.83,164.82L140.83,164.82z M140.83,164.82"/>
	<path class="st0" d="M144.98,42.53c0-8.63-7.02-15.65-15.65-15.65H70.67c-8.63,0-15.65,7.02-15.65,15.65v3.61
		c0,2.29,1.86,4.15,4.15,4.15c2.29,0,4.15-1.86,4.15-4.15v-3.61c0-4.05,3.3-7.35,7.35-7.35h58.66c4.05,0,7.35,3.3,7.35,7.35v60.92
		c-4.92-6.13-11.33-10.96-18.68-13.99c2.8-3.75,4.46-8.39,4.46-13.42c0-12.39-10.08-22.46-22.46-22.46
		c-12.39,0-22.46,10.08-22.46,22.46c0,5.03,1.66,9.67,4.46,13.42c-7.35,3.03-13.76,7.86-18.68,13.99V65.54
		c0-2.29-1.86-4.15-4.15-4.15c-2.29,0-4.15,1.86-4.15,4.15v49.74c0,8.63,7.02,15.65,15.65,15.65h58.66
		c8.63,0,15.65-7.02,15.65-15.65V42.53z M100,61.88c7.81,0,14.17,6.36,14.17,14.17c0,7.81-6.36,14.17-14.17,14.17
		c-7.81,0-14.17-6.36-14.17-14.17C85.83,68.23,92.19,61.88,100,61.88L100,61.88z M129.33,122.63H70.67c-2.92,0-5.43-1.71-6.62-4.18
		c4.46-11.07,13.7-19.42,25.14-22.72c3.21,1.77,6.9,2.78,10.81,2.78c3.92,0,7.6-1.01,10.81-2.78c11.44,3.31,20.68,11.65,25.14,22.72
		C134.77,120.92,132.25,122.63,129.33,122.63L129.33,122.63z M129.33,122.63"/>
</g>
</svg>
