<?xml version="1.0" encoding="utf-8"?>
<!-- Generator: Adobe Illustrator 23.0.0, SVG Export Plug-In . SVG Version: 6.00 Build 0)  -->
<svg version="1.1" id="Capa_1" xmlns="http://www.w3.org/2000/svg" xmlns:xlink="http://www.w3.org/1999/xlink" x="0px" y="0px"
	 viewBox="0 0 200 200" style="enable-background:new 0 0 200 200;" xml:space="preserve">
<style type="text/css">
	.st0{fill:#999999;}
	.st1{fill:none;}
	.st2{fill:#02C1E5;}
	.st3{fill:#0F7A79;}
	.st4{fill:#F6565B;}
	.st5{fill:#F5D339;}
	.st6{fill:#FF6E00;}
	.st7{fill:#B0F5F5;}
</style>
<g>
	<path class="st0" d="M178.8,60.45v-2.49c0-9.36-7.62-16.98-16.98-16.98H38.18c-9.36,0-16.98,7.62-16.98,16.98v84.08
		c0,9.36,7.62,16.98,16.98,16.98h123.65c9.36,0,16.98-7.62,16.98-16.98V60.47C178.8,60.46,178.8,60.45,178.8,60.45L178.8,60.45z
		 M38.18,50.21h123.64c4.27,0,7.75,3.48,7.75,7.75v0l-61.84,41.23c-4.12,2.74-11.34,2.74-15.45,0L30.43,57.96v0
		C30.43,53.69,33.91,50.21,38.18,50.21L38.18,50.21z M161.82,149.79H38.18c-4.27,0-7.75-3.48-7.75-7.75V69.06l56.72,37.81
		c3.6,2.4,8.22,3.6,12.85,3.6c4.62,0,9.25-1.2,12.85-3.6l56.72-37.81v72.98C169.57,146.31,166.09,149.79,161.82,149.79
		L161.82,149.79z M161.82,149.79"/>
</g>
</svg>
