<?xml version="1.0" encoding="utf-8"?>
<!-- Generator: Adobe Illustrator 23.0.0, SVG Export Plug-In . SVG Version: 6.00 Build 0)  -->
<svg version="1.1" id="Capa_1" xmlns="http://www.w3.org/2000/svg" xmlns:xlink="http://www.w3.org/1999/xlink" x="0px" y="0px"
	 viewBox="0 0 200 200" style="enable-background:new 0 0 200 200;" xml:space="preserve">
<style type="text/css">
	.st0{fill:#999999;}
	.st1{fill:none;}
	.st2{fill:#02C1E5;}
	.st3{fill:#0F7A79;}
	.st4{fill:#F6565B;}
	.st5{fill:#F5D339;}
	.st6{fill:#FF6E00;}
	.st7{fill:#B0F5F5;}
</style>
<g>
	<path class="st3" d="M63.7,117.53c0.41,0.45,0.99,0.71,1.59,0.71c0.03,0,0.05,0,0.07,0c0.63-0.02,1.22-0.32,1.61-0.82l11.12-14.26
		c0.73-0.93,0.56-2.27-0.37-3c-0.93-0.73-2.27-0.56-3,0.37l-9.55,12.25l-4.29-4.79c-0.79-0.88-2.14-0.95-3.01-0.17
		c-0.88,0.79-0.95,2.14-0.17,3.01L63.7,117.53z M63.7,117.53"/>
	<path class="st3" d="M67.86,136.45c15.15,0,27.47-12.32,27.47-27.47c0-15.15-12.32-27.47-27.47-27.47s-27.47,12.32-27.47,27.47
		C40.38,124.13,52.71,136.45,67.86,136.45L67.86,136.45z M67.86,85.77c12.79,0,23.2,10.41,23.2,23.2c0,12.79-10.41,23.2-23.2,23.2
		c-12.79,0-23.2-10.41-23.2-23.2C44.65,96.18,55.06,85.77,67.86,85.77L67.86,85.77z M67.86,85.77"/>
	<path class="st0" d="M167.07,27.08H54.92c-1.18,0-2.13,0.96-2.13,2.14c0,1.18,0.96,2.13,2.13,2.13h112.15c0.94,0,1.7,0.76,1.7,1.7
		v12.11H31.23V33.05c0-0.94,0.76-1.7,1.7-1.7h11.98c1.18,0,2.13-0.96,2.13-2.14c0-1.18-0.96-2.14-2.13-2.14H32.93
		c-3.29,0-5.97,2.68-5.97,5.97v133.9c0,3.29,2.68,5.97,5.97,5.97h134.14c3.29,0,5.97-2.68,5.97-5.97V33.05
		C173.04,29.76,170.36,27.08,167.07,27.08L167.07,27.08z M168.77,166.95c0,0.94-0.76,1.7-1.7,1.7H32.93c-0.94,0-1.7-0.76-1.7-1.7
		V49.43h137.54V166.95z M168.77,166.95"/>
	<path class="st0" d="M139.6,37.82c0.25,1.55-0.8,3.01-2.35,3.26c-1.55,0.25-3.01-0.8-3.27-2.35c-0.25-1.55,0.8-3.01,2.36-3.27
		C137.89,35.21,139.35,36.27,139.6,37.82L139.6,37.82z M139.6,37.82"/>
	<path class="st0" d="M149.54,36.25c1.11,1.11,1.11,2.91,0,4.03c-1.11,1.11-2.91,1.11-4.03,0c-1.11-1.11-1.11-2.91,0-4.03
		C146.62,35.14,148.43,35.14,149.54,36.25L149.54,36.25z M149.54,36.25"/>
	<path class="st0" d="M161.07,37.82c0.25,1.55-0.8,3.01-2.36,3.26c-1.55,0.25-3.01-0.8-3.26-2.35c-0.25-1.55,0.8-3.01,2.35-3.27
		C159.35,35.22,160.81,36.27,161.07,37.82L161.07,37.82z M161.07,37.82"/>
	<path class="st4" d="M140.48,100.48c-0.84-0.82-2.19-0.81-3.02,0.03l-5.32,5.42l-5.32-5.41c-0.83-0.84-2.18-0.85-3.02-0.03
		c-0.84,0.82-0.85,2.18-0.03,3.02l5.37,5.47l-5.37,5.47c-0.83,0.84-0.81,2.19,0.03,3.02c0.42,0.41,0.96,0.61,1.5,0.61
		c0.55,0,1.11-0.21,1.52-0.64l5.32-5.42l5.32,5.42c0.42,0.43,0.97,0.64,1.52,0.64c0.54,0,1.08-0.2,1.49-0.61
		c0.84-0.83,0.85-2.18,0.03-3.02l-5.37-5.47l5.37-5.47C141.33,102.66,141.32,101.31,140.48,100.48L140.48,100.48z M140.48,100.48"/>
	<path class="st4" d="M132.14,136.45c7.73,0,15.14-3.28,20.34-9c0.79-0.87,0.73-2.22-0.14-3.01c-0.87-0.79-2.22-0.73-3.02,0.14
		c-4.39,4.83-10.65,7.6-17.18,7.6c-12.79,0-23.2-10.41-23.2-23.2c0-12.79,10.41-23.2,23.2-23.2s23.2,10.41,23.2,23.2
		c0,2.69-0.46,5.32-1.35,7.83c-0.4,1.11,0.18,2.33,1.29,2.73c1.11,0.4,2.33-0.18,2.73-1.29c1.07-2.97,1.6-6.09,1.6-9.27
		c0-15.15-12.33-27.47-27.47-27.47c-15.15,0-27.47,12.32-27.47,27.47C104.67,124.13,116.99,136.45,132.14,136.45L132.14,136.45z
		 M132.14,136.45"/>
</g>
</svg>
