<?xml version="1.0" encoding="utf-8"?>
<!-- Generator: Adobe Illustrator 24.0.3, SVG Export Plug-In . SVG Version: 6.00 Build 0)  -->
<svg version="1.1" id="Capa_1" xmlns="http://www.w3.org/2000/svg" xmlns:xlink="http://www.w3.org/1999/xlink" x="0px" y="0px"
	 viewBox="0 0 200 200" style="enable-background:new 0 0 200 200;" xml:space="preserve">
<style type="text/css">
	.st0{fill:#999999;}
	.st1{fill:none;}
	.st2{fill:#02C1E5;}
	.st3{fill:#F6565B;}
	.st4{fill:#0F7A79;}
	.st5{fill:#F5D339;}
	.st6{fill:#FF6E00;}
	.st7{fill:#B0F5F5;}
	.st8{fill:#518D30;}
	.st9{fill:#FEFEFE;}
	.st10{fill:#5E5E5E;}
	.st11{fill:#FFFFFF;}
</style>
<g>
	<path class="st0" d="M13.25,91.96c1.61-1.68,3.87-2.07,5.92-2.72c2.21-0.7,3.43-1.82,3.93-4.19c0.64-3.03,1.92-5.91,3.48-8.6
		c0.78-1.35,0.73-2.45-0.01-3.76c-0.9-1.56-1.6-3.23-2.43-4.84c-0.69-1.32-0.56-2.44,0.51-3.53c3.72-3.78,7.42-7.58,11.1-11.4
		c1.04-1.08,2.18-1.29,3.52-0.69c1.9,0.86,3.83,1.66,5.71,2.56c0.85,0.4,1.55,0.39,2.38-0.08c3.44-1.95,7.03-3.6,10.84-4.72
		c0.94-0.28,1.38-0.85,1.66-1.71c0.6-1.88,1.28-3.73,1.87-5.62c0.48-1.56,1.45-2.3,3.1-2.31c2.2-0.01,4.4-0.14,6.59-0.21
		c0.56-0.02,1.13-0.04,1.69-0.01c1.69,0.1,2.77,1.01,2.81,2.35c0.05,1.31-1.05,2.34-2.73,2.42c-1.86,0.08-3.73,0.13-5.58,0.04
		c-1.31-0.06-1.93,0.44-2.28,1.68c-0.45,1.63-1.13,3.19-1.61,4.81c-0.43,1.45-1.34,2.24-2.78,2.63c-4.43,1.21-8.61,3.04-12.52,5.46
		c-1.28,0.79-2.49,0.87-3.84,0.22c-1.62-0.79-3.3-1.47-4.92-2.26c-0.9-0.44-1.56-0.31-2.25,0.42c-2.57,2.69-5.16,5.37-7.78,8.02
		c-0.63,0.64-0.65,1.2-0.26,1.96c0.89,1.7,1.69,3.45,2.57,5.15c0.63,1.21,0.65,2.33-0.08,3.52c-2.49,4.08-4.16,8.51-5.19,13.16
		c-0.29,1.3-1,2.07-2.24,2.49c-1.81,0.63-3.58,1.37-5.4,1.99c-0.95,0.32-1.32,0.87-1.28,1.87c0.13,3.72,0.23,7.44,0.29,11.16
		c0.02,0.92,0.51,1.29,1.27,1.54c1.71,0.56,3.41,1.18,5.14,1.72c1.35,0.42,2.17,1.2,2.57,2.62c1.26,4.53,3.08,8.84,5.6,12.83
		c0.78,1.24,0.78,2.38,0.15,3.66c-0.82,1.67-1.49,3.41-2.3,5.09c-0.41,0.84-0.3,1.43,0.39,2.08c2.7,2.56,5.38,5.15,8.02,7.78
		c0.7,0.69,1.29,0.68,2.09,0.25c1.7-0.89,3.45-1.68,5.15-2.56c1.16-0.6,2.22-0.58,3.36,0.09c4.11,2.43,8.48,4.21,13.17,5.18
		c1.26,0.26,2.1,0.97,2.53,2.22c0.6,1.76,1.35,3.47,1.93,5.24c0.38,1.15,0.93,1.63,2.22,1.44c1.33-0.19,2.71-0.16,4.05-0.09
		c1.55,0.08,2.64,1.15,2.53,2.42c-0.13,1.47-1.09,2.24-2.48,2.3c-2.42,0.1-4.85,0.09-7.28,0.08c-1.3-0.01-2.05-0.83-2.48-1.97
		c-0.72-1.9-1.44-3.8-2.1-5.72c-0.34-0.99-0.9-1.56-1.97-1.83c-3.68-0.92-7.2-2.3-10.53-4.13c-1-0.55-1.84-0.56-2.85-0.03
		c-1.84,0.98-3.76,1.82-5.62,2.76c-1.17,0.59-2.19,0.4-3.09-0.48c-3.93-3.81-7.84-7.64-11.76-11.46c-0.97-0.94-1.14-1.99-0.56-3.23
		c0.93-1.99,1.77-4.03,2.71-6.02c0.35-0.75,0.31-1.36-0.11-2.06c-2.04-3.4-3.58-7.04-4.75-10.82c-0.3-0.98-0.86-1.48-1.81-1.77
		c-1.78-0.54-3.52-1.21-5.3-1.75c-1.28-0.39-2.22-1.07-2.66-2.36C13.25,104.15,13.25,98.05,13.25,91.96z"/>
	<path class="st0" d="M121.03,98.29c13.54,0,27.08-0.02,40.62,0.03c1.59,0.01,2.35-0.43,2.91-2.01c1.88-5.21,7.52-8.16,12.99-7.04
		c5.73,1.18,9.43,6.12,9.18,12.25c-0.22,5.23-4.63,9.87-10,10.52c-5.46,0.66-10.51-2.31-12.3-7.43c-0.49-1.41-1.19-1.75-2.56-1.74
		c-27.08,0.03-54.16,0.02-81.24,0.02c-2.66,0-3.61-1.35-2.76-3.88c0.18-0.53,0.53-0.69,1.01-0.71c0.56-0.02,1.13-0.03,1.69-0.03
		C94.06,98.29,107.54,98.29,121.03,98.29z M168.41,100.59c-0.01,3.91,2.93,6.86,6.83,6.86c3.79,0,6.9-3.13,6.87-6.9
		c-0.03-3.77-3.17-6.82-6.99-6.79C171.38,93.78,168.42,96.79,168.41,100.59z"/>
	<path class="st6" d="M88.77,86.43c2.93,0,5.87,0.06,8.8-0.02c3.94-0.1,6.82-2.97,7.02-6.84c0.37-7.22,5.19-11.93,12.43-12.01
		c5.13-0.06,10.27-0.05,15.4,0.01c1.4,0.02,2.08-0.43,2.58-1.78c1.88-5.12,7.39-8.21,12.58-7.22c5.81,1.11,9.73,5.77,9.69,11.53
		c-0.03,5.65-3.96,10.18-9.77,11.29c-5.13,0.98-10.65-2.18-12.53-7.33c-0.47-1.28-1.09-1.73-2.44-1.71
		c-5.3,0.07-10.61,0.01-15.91,0.04c-4.04,0.02-6.6,2.31-7.22,6.35c-0.23,1.5-0.23,3.02-0.75,4.49c-1.65,4.64-5.9,7.78-10.81,7.81
		c-6.04,0.04-12.08-0.06-18.11,0.05c-2.06,0.04-1.87-1.11-1.93-2.47c-0.06-1.5,0.24-2.3,2.01-2.23
		C82.78,86.53,85.78,86.44,88.77,86.43C88.77,86.43,88.77,86.43,88.77,86.43z M145.7,63.19c-3.91,0-6.79,2.91-6.77,6.85
		c0.02,3.82,2.9,6.68,6.75,6.7c3.89,0.02,6.93-2.93,6.95-6.76C152.64,66.23,149.54,63.19,145.7,63.19z"/>
	<path class="st3" d="M89.02,110.14c2.88,0,5.76-0.02,8.63,0.01c6.16,0.06,11.09,4.7,11.57,10.81c0.08,1.06,0.19,2.15,0.5,3.16
		c0.86,2.8,3.35,4.65,6.37,4.68c5.59,0.05,11.17,0,16.76,0.04c1.18,0.01,1.64-0.51,2.04-1.55c1.77-4.6,5.23-7.23,10.09-7.56
		c4.57-0.32,8.28,1.62,10.64,5.62c2.46,4.18,2.31,8.44-0.42,12.45c-2.53,3.72-6.24,5.39-10.66,4.93c-4.5-0.47-7.78-2.94-9.47-7.18
		c-0.58-1.45-1.26-1.97-2.81-1.94c-5.02,0.1-10.04,0.05-15.06,0.03c-7.31-0.02-12.23-4.72-12.6-12c-0.2-3.98-3.21-6.85-7.35-6.88
		c-5.75-0.05-11.51-0.01-17.26-0.02c-2.16,0-2.16-0.01-2.16-2.34c0-2.26,0-2.27,2.23-2.28C83.04,110.13,86.03,110.14,89.02,110.14z
		 M138.92,131.27c0.01,3.88,2.99,6.84,6.86,6.83c3.78-0.01,6.92-3.2,6.85-6.94c-0.08-3.72-3.1-6.67-6.87-6.69
		C141.82,124.46,138.91,127.35,138.92,131.27z"/>
	<path class="st2" d="M82.35,122.69c4.56-0.24,8.74,1.15,12.08,4.76c1.49,1.61,2.41,3.52,3.16,5.54c1.85,5.02,3.71,10.05,5.57,15.06
		c1.62,4.37,4.96,6.59,9.6,6.55c1.22-0.01,1.75-0.43,2.09-1.64c2.33-8.14,11.67-11.22,18.27-6.09c3.71,2.88,5.29,7.75,3.99,12.26
		c-1.31,4.55-5.29,7.86-10.04,8.37c-4.45,0.48-9.2-1.97-11.2-6.09c-0.77-1.58-1.63-2.06-3.32-2.05c-6.45,0.01-11.56-3.68-13.82-9.77
		c-1.9-5.12-3.78-10.26-5.71-15.38c-1.73-4.6-4.73-6.67-9.64-6.73c-1.35-0.02-2.71-0.02-4.06-0.01c-1.02,0.01-1.5-0.38-1.54-1.5
		c-0.11-3.3-0.16-3.3,3.11-3.3C81.3,122.69,81.69,122.69,82.35,122.69z M125.99,149.18c-3.89,0-6.72,2.8-6.76,6.7
		c-0.04,3.98,2.8,6.85,6.78,6.84c3.89,0,6.73-2.82,6.76-6.7C132.8,152.05,129.96,149.19,125.99,149.18z"/>
	<path class="st4" d="M82.16,78.51c-0.68,0-1.35,0-2.03,0c-2.32-0.01-2.32-0.01-2.32-2.37c0-2.25,0-2.23,2.23-2.27
		c1.69-0.03,3.37,0.08,5.06-0.19c3.88-0.61,6.45-2.79,7.81-6.41c1.87-4.96,3.71-9.93,5.53-14.9c2.6-7.09,7.28-10.49,14.81-10.54
		c1.44-0.01,1.91-0.73,2.44-1.8c2.42-4.85,7.82-7.27,13.09-5.95c5.05,1.26,8.75,5.98,8.75,11.15c0.01,5.67-4.23,10.51-10.03,11.47
		c-5.29,0.88-10.88-2.56-12.46-7.92c-0.52-1.77-1.31-2.3-3.06-2.19c-4.14,0.26-7.08,2.21-8.59,6.04c-1.97,4.98-3.96,9.96-5.58,15.06
		C95.81,74.05,90.25,79.03,82.16,78.51z M132.77,45.23c-0.01-3.85-2.88-6.73-6.71-6.75c-3.87-0.01-6.94,2.97-6.95,6.75
		c-0.01,3.75,3.14,6.94,6.87,6.95C129.69,52.19,132.78,49.02,132.77,45.23z"/>
	<path class="st0" d="M42.59,100.65c0.05-15.78,12.13-29.33,27.79-31.08c1.01-0.11,2.03-0.11,3.04-0.08c1.5,0.03,2.54,0.93,2.48,2.2
		c-0.06,1.47-0.97,2.3-2.39,2.36c-1.98,0.08-3.93,0.28-5.86,0.72c-12.35,2.8-21.27,14.3-20.51,27.77
		c0.67,11.88,10.15,22.33,22.47,24.27c1.18,0.19,2.35,0.24,3.53,0.3c1.73,0.08,2.89,1.17,2.77,2.54c-0.12,1.36-1.29,2.23-2.94,2.18
		c-15.68-0.47-28.46-12.44-30.07-28.15C42.81,102.67,42.7,101.66,42.59,100.65z"/>
</g>
</svg>
