<?xml version="1.0" encoding="utf-8"?>
<!-- Generator: Adobe Illustrator 23.0.0, SVG Export Plug-In . SVG Version: 6.00 Build 0)  -->
<svg version="1.1" id="Capa_1" xmlns="http://www.w3.org/2000/svg" xmlns:xlink="http://www.w3.org/1999/xlink" x="0px" y="0px"
	 viewBox="0 0 200 200" style="enable-background:new 0 0 200 200;" xml:space="preserve">
<style type="text/css">
	.st0{fill:#999999;}
	.st1{fill:none;}
	.st2{fill:#02C1E5;}
	.st3{fill:#0F7A79;}
	.st4{fill:#F6565B;}
	.st5{fill:#F5D339;}
	.st6{fill:#FF6E00;}
	.st7{fill:#B0F5F5;}
</style>
<g>
	<rect x="22.87" y="171.99" class="st6" width="154.27" height="5.14"/>
	<path class="st0" d="M58.86,166.85H33.15c-1.42,0-2.57-1.15-2.57-2.57V118c0-1.42,1.15-2.57,2.57-2.57h25.71
		c1.42,0,2.57,1.15,2.57,2.57v46.28C61.43,165.7,60.28,166.85,58.86,166.85z M35.72,161.71h20.57v-41.14H35.72V161.71z"/>
	<path class="st0" d="M130.85,166.85h-25.71c-1.42,0-2.57-1.15-2.57-2.57V87.14c0-1.42,1.15-2.57,2.57-2.57h25.71
		c1.42,0,2.57,1.15,2.57,2.57v77.13C133.42,165.7,132.27,166.85,130.85,166.85z M107.71,161.71h20.57V89.72h-20.57V161.71z"/>
	<path class="st0" d="M94.86,166.85H69.15c-1.42,0-2.57-1.15-2.57-2.57V56.29c0-1.42,1.15-2.57,2.57-2.57h25.71
		c1.42,0,2.57,1.15,2.57,2.57v107.99C97.43,165.7,96.28,166.85,94.86,166.85z M71.72,161.71h20.57V58.86H71.72V161.71z"/>
	<path class="st0" d="M166.85,166.85h-25.71c-1.42,0-2.57-1.15-2.57-2.57V25.44c0-1.42,1.15-2.57,2.57-2.57h25.71
		c1.42,0,2.57,1.15,2.57,2.57v138.84C169.42,165.7,168.27,166.85,166.85,166.85z M143.71,161.71h20.57V28.01h-20.57V161.71z"/>
</g>
</svg>
