<?xml version="1.0" encoding="utf-8"?>
<!-- Generator: Adobe Illustrator 23.0.0, SVG Export Plug-In . SVG Version: 6.00 Build 0)  -->
<svg version="1.1" id="Capa_1" xmlns="http://www.w3.org/2000/svg" xmlns:xlink="http://www.w3.org/1999/xlink" x="0px" y="0px"
	 viewBox="0 0 200 200" style="enable-background:new 0 0 200 200;" xml:space="preserve">
<style type="text/css">
	.st0{fill:#999999;}
	.st1{fill:none;}
	.st2{fill:#02C1E5;}
	.st3{fill:#0F7A79;}
	.st4{fill:#F6565B;}
	.st5{fill:#F5D339;}
	.st6{fill:#FF6E00;}
	.st7{fill:#B0F5F5;}
</style>
<g>
	<path class="st0" d="M167.14,27.89H32.86c-4.12,0-7.45,3.34-7.46,7.46v129.3c0,4.12,3.34,7.45,7.46,7.46h134.27
		c4.12,0,7.45-3.34,7.46-7.46V35.35C174.59,31.23,171.25,27.9,167.14,27.89L167.14,27.89z M32.86,32.86h134.27
		c1.37,0,2.48,1.11,2.49,2.49v12.43H30.38V35.35C30.38,33.98,31.49,32.87,32.86,32.86L32.86,32.86z M167.14,167.14H32.86
		c-1.37,0-2.48-1.11-2.49-2.49V52.76h139.25v111.89C169.62,166.02,168.51,167.13,167.14,167.14L167.14,167.14z M167.14,167.14"/>
	<path class="st0" d="M60.22,40.32c0,1.37-1.11,2.49-2.49,2.49s-2.49-1.11-2.49-2.49c0-1.37,1.11-2.49,2.49-2.49
		S60.22,38.95,60.22,40.32L60.22,40.32z M60.22,40.32"/>
	<path class="st0" d="M50.27,40.32c0,1.37-1.11,2.49-2.49,2.49c-1.37,0-2.49-1.11-2.49-2.49c0-1.37,1.11-2.49,2.49-2.49
		C49.16,37.84,50.27,38.95,50.27,40.32L50.27,40.32z M50.27,40.32"/>
	<path class="st0" d="M40.32,40.32c0,1.37-1.11,2.49-2.49,2.49s-2.49-1.11-2.49-2.49c0-1.37,1.11-2.49,2.49-2.49
		S40.32,38.95,40.32,40.32L40.32,40.32z M40.32,40.32"/>
	<path class="st6" d="M157.19,62.7H42.81c-1.37,0-2.49,1.11-2.49,2.49v39.78c0,1.37,1.11,2.49,2.49,2.49h114.38
		c1.37,0,2.49-1.11,2.49-2.49V65.19C159.68,63.82,158.56,62.7,157.19,62.7L157.19,62.7z M116.43,99.52l5.95-5.95l8.92,8.92h-12.65
		L116.43,99.52z M112.43,102.49H92.54l9.95-13.26L112.43,102.49z M86.32,102.49H67.48l12.63-18.04l9.53,13.62L86.32,102.49z
		 M154.7,102.49h-16.38L124.14,88.3c-0.47-0.47-1.1-0.73-1.76-0.73c-0.66,0-1.29,0.26-1.76,0.73l-7.21,7.21l-8.94-11.92
		c-0.47-0.62-1.21-0.99-1.99-0.99c-0.78,0-1.52,0.37-1.99,0.99l-7.72,10.29l-10.64-15.2c-0.46-0.67-1.23-1.06-2.04-1.06
		c-0.81,0-1.57,0.39-2.04,1.06l-16.66,23.8H45.3V67.68H154.7V102.49z M154.7,102.49"/>
	<path class="st6" d="M117.41,80.11c0,1.37-1.11,2.49-2.49,2.49s-2.49-1.11-2.49-2.49s1.11-2.49,2.49-2.49
		S117.41,78.74,117.41,80.11L117.41,80.11z M117.41,80.11"/>
	<path class="st0" d="M104.97,142.27h-9.95c-4.12,0-7.46,3.34-7.46,7.46c0,4.12,3.34,7.46,7.46,7.46h9.95
		c4.12,0,7.46-3.34,7.46-7.46C112.43,145.61,109.09,142.27,104.97,142.27L104.97,142.27z M104.97,152.22h-9.95
		c-1.37,0-2.49-1.11-2.49-2.49c0-1.37,1.11-2.49,2.49-2.49h9.95c1.37,0,2.49,1.11,2.49,2.49
		C107.46,151.1,106.35,152.22,104.97,152.22L104.97,152.22z M104.97,152.22"/>
	<path class="st0" d="M114.92,122.38c1.37,0,2.49-1.11,2.49-2.49c0-1.37-1.11-2.49-2.49-2.49H85.08c-1.37,0-2.49,1.11-2.49,2.49
		c0,1.37,1.11,2.49,2.49,2.49H114.92z M114.92,122.38"/>
	<path class="st0" d="M127.35,127.35h-54.7c-1.37,0-2.49,1.11-2.49,2.49s1.11,2.49,2.49,2.49h54.7c1.37,0,2.49-1.11,2.49-2.49
		S128.72,127.35,127.35,127.35L127.35,127.35z M127.35,127.35"/>
	<path class="st0" d="M62.7,127.35h-4.97c-1.37,0-2.49,1.11-2.49,2.49s1.11,2.49,2.49,2.49h4.97c1.37,0,2.49-1.11,2.49-2.49
		S64.07,127.35,62.7,127.35L62.7,127.35z M62.7,127.35"/>
	<path class="st0" d="M142.27,127.35h-4.97c-1.37,0-2.49,1.11-2.49,2.49s1.11,2.49,2.49,2.49h4.97c1.37,0,2.49-1.11,2.49-2.49
		S143.64,127.35,142.27,127.35L142.27,127.35z M142.27,127.35"/>
</g>
</svg>
