<?xml version="1.0" encoding="utf-8"?>
<!-- Generator: Adobe Illustrator 24.0.3, SVG Export Plug-In . SVG Version: 6.00 Build 0)  -->
<svg version="1.1" id="Capa_1" xmlns="http://www.w3.org/2000/svg" xmlns:xlink="http://www.w3.org/1999/xlink" x="0px" y="0px"
	 viewBox="0 0 200 200" style="enable-background:new 0 0 200 200;" xml:space="preserve">
<style type="text/css">
	.st0{fill:#999999;}
	.st1{fill:none;}
	.st2{fill:#02C1E5;}
	.st3{fill:#F6565B;}
	.st4{fill:#0F7A79;}
	.st5{fill:#F5D339;}
	.st6{fill:#FF6E00;}
	.st7{fill:#B0F5F5;}
	.st8{fill:#518D30;}
	.st9{fill:#FEFEFE;}
	.st10{fill:#5E5E5E;}
	.st11{fill:#FFFFFF;}
</style>
<g>
	<g>
		<path class="st3" d="M154.82,90.25c-0.17,6.44-2.23,11.86-6.42,16.43c-0.64,0.7-1.34,1.32-2.34,1.45
			c-1.42,0.18-2.71-0.45-3.33-1.64c-0.62-1.18-0.42-2.7,0.6-3.79c2.53-2.68,4.19-5.78,4.75-9.44c0.85-5.55-0.7-10.37-4.42-14.52
			c-0.54-0.61-1.1-1.19-1.23-2.05c-0.23-1.49,0.39-2.81,1.63-3.46c1.19-0.63,2.75-0.43,3.78,0.61c3.83,3.86,6.07,8.5,6.74,13.89
			C154.71,88.65,154.76,89.59,154.82,90.25z"/>
		<path class="st3" d="M45.18,90.56c0.17-6.17,2.18-11.47,6.22-15.98c0.66-0.73,1.35-1.44,2.38-1.63c1.4-0.26,2.72,0.32,3.4,1.49
			c0.68,1.17,0.55,2.73-0.43,3.8c-1.13,1.23-2.18,2.51-2.97,3.99c-3.57,6.69-2.61,14.46,2.51,20.06c0.55,0.6,1.1,1.19,1.24,2.04
			c0.24,1.47-0.37,2.82-1.6,3.48c-1.18,0.63-2.7,0.44-3.79-0.59c-1.76-1.65-3.12-3.62-4.24-5.74C46.1,98.03,45.27,94.31,45.18,90.56
			z"/>
		<path class="st3" d="M57.48,90.49c0.19-3.05,1.13-5.64,3.16-7.77c1.43-1.51,3.26-1.64,4.65-0.4c1.36,1.22,1.42,3.13,0.13,4.68
			c-1.97,2.37-1.98,4.55-0.03,7.02c1.27,1.61,1.2,3.5-0.15,4.69c-1.34,1.17-3.31,1-4.67-0.46C58.49,96.03,57.58,93.34,57.48,90.49z"
			/>
		<path class="st3" d="M142.51,90.53c-0.15,2.96-1.09,5.64-3.19,7.83c-1.34,1.4-3.25,1.53-4.58,0.35c-1.34-1.18-1.43-3.1-0.22-4.59
			c2.05-2.54,2.07-4.6,0.06-7.14c-1.27-1.6-1.19-3.5,0.2-4.69c1.37-1.18,3.28-0.99,4.67,0.51
			C141.44,84.97,142.36,87.58,142.51,90.53z"/>
	</g>
	<g>
		<path class="st5" d="M99.02,91.13l-13.1,6.61c-2.08,1.08-4.16,2.16-6.24,3.26c-1.28,0.68-2.54,0.75-3.72-0.16
			c-1.16-0.89-1.46-2.06-1.2-3.52c1.16-6.46,2.24-12.93,3.37-19.4c0.17-0.96-0.04-1.69-0.77-2.4c-4.67-4.5-9.28-9.06-13.93-13.57
			c-1.11-1.07-1.89-2.23-1.34-3.85c0.56-1.67,1.95-2.11,3.5-2.33c6.54-0.93,13.07-1.9,19.61-2.82c0.79-0.11,1.17-0.59,1.51-1.21
			c2.88-5.28,5.78-10.55,8.65-15.83c0.62-1.14,1.38-2.05,2.79-2.17c1.68-0.14,2.7,0.71,3.46,2.11c2.72,5.03,5.5,10.02,8.18,15.07
			c0.7,1.31,1.51,2,3.08,2.2c6.17,0.79,12.31,1.75,18.47,2.65c0.29,0.04,0.59,0.09,0.88,0.15c1.31,0.25,2.28,0.93,2.7,2.25
			c0.42,1.33-0.03,2.44-0.97,3.37c-2.15,2.13-4.32,4.25-6.48,6.37c-2.65,2.59-5.3,5.2-7.99,7.76c-0.73,0.7-0.76,1.45-0.61,2.33
			c1.12,6.47,2.22,12.94,3.36,19.4c0.25,1.39-0.05,2.56-1.16,3.43c-1.17,0.92-2.45,0.87-3.72,0.2c-3.44-1.8-6.87-3.61-10.31-5.41
			L99.02,91.13z M108.47,89.12c1.71,0.78,3.33,1.73,5,2.59c0.37,0.19,0.7,0.5,1.24,0.41c0-0.16,0.02-0.32,0-0.48
			c-0.86-5-1.69-10-2.6-14.99c-0.31-1.68,0.13-2.94,1.37-4.12c3.79-3.62,7.51-7.32,11.45-11.17c-5.46-0.8-10.67-1.61-15.9-2.32
			c-1.66-0.22-2.69-1.04-3.45-2.47c-2.06-3.88-4.2-7.72-6.31-11.57c-0.2-0.36-0.29-0.93-0.78-0.92c-0.47,0.01-0.58,0.57-0.77,0.93
			c-2.14,3.89-4.27,7.78-6.38,11.68c-0.64,1.19-1.49,2.07-2.89,2.27c-2.99,0.43-5.99,0.87-8.98,1.31c-2.41,0.35-4.81,0.72-7.4,1.11
			c3.88,3.78,7.56,7.39,11.28,10.96c1.15,1.1,1.89,2.28,1.59,3.95c-0.47,2.6-0.91,5.21-1.36,7.81c-0.46,2.67-0.91,5.35-1.42,8.33
			c1.45-0.75,2.63-1.4,3.84-1.97l12.5-7.18L108.47,89.12z"/>
	</g>
	<g>
		<path class="st0" d="M107.91,100.95c-0.01,2.09,0.02,4.18-0.02,6.27c-0.01,0.8,0.09,1.12,1.06,0.95c3.97-0.71,7.25,0.51,9.62,3.83
			c0.5,0.7,0.92,0.78,1.68,0.54c4.11-1.3,8.12,0.03,10.6,3.55c0.49,0.69,0.9,0.8,1.68,0.56c6.29-1.96,12.23,2.37,12.24,8.94
			c0.02,12.76,0.01,25.51,0,38.27c0,0.55,0.03,1.11-0.17,1.64c-0.51,1.4-1.88,2.21-3.47,2.02c-1.44-0.17-2.56-1.34-2.67-2.83
			c-0.04-0.51-0.02-1.02-0.02-1.54c0-12.12,0-24.23,0-36.35c0-0.77,0-1.54-0.25-2.28c-0.4-1.18-1.48-1.97-2.71-1.98
			c-1.22-0.01-2.35,0.77-2.74,1.94c-0.21,0.61-0.27,1.24-0.27,1.89c0.01,1.79,0.04,3.58-0.01,5.38c-0.05,1.8-1.36,3.01-3.14,3.02
			c-1.77,0-3.12-1.23-3.15-3.01c-0.05-3.11-0.02-6.23-0.02-9.34c0-0.69-0.04-1.37-0.26-2.02c-0.4-1.17-1.51-1.95-2.74-1.94
			c-1.23,0.01-2.32,0.8-2.71,1.98c-0.2,0.61-0.26,1.25-0.25,1.89c0.01,2.26,0.01,4.52,0,6.78c-0.01,2.31-1.19,3.63-3.2,3.61
			c-1.94-0.02-3.11-1.34-3.12-3.56c-0.01-3.75,0.01-7.51-0.01-11.26c-0.01-1.89-0.74-2.98-2.15-3.39c-1.61-0.47-3.12,0.37-3.6,1.98
			c-0.17,0.58-0.21,1.17-0.21,1.77c0,2.99,0.01,5.97-0.01,8.96c-0.01,2.12-1.21,3.43-3.11,3.45c-1.98,0.02-3.2-1.28-3.2-3.48
			c-0.01-10.37-0.01-20.73-0.01-31.1c0-0.68,0.01-1.36-0.18-2.03c-0.39-1.36-1.44-2.22-2.78-2.23c-1.32-0.02-2.42,0.85-2.82,2.18
			c-0.21,0.71-0.19,1.43-0.19,2.16c0,15.74,0,31.49,0,47.23c0,0.47,0.01,0.94-0.01,1.41c-0.05,1.58-0.8,2.63-2.21,3.09
			c-1.31,0.43-2.61,0.06-3.52-1.14c-2.33-3.05-4.61-6.14-6.93-9.2c-1.14-1.51-2.41-2.87-4.18-3.67c-1.66-0.75-3.38-0.77-5.14-0.54
			c-0.91,0.12-0.91,0.44-0.39,1.11c5.15,6.59,10.27,13.2,15.4,19.8c1.94,2.49,3.88,4.98,5.81,7.48c0.47,0.61,0.93,1.23,1.09,2
			c0.31,1.47-0.39,2.88-1.72,3.51c-1.37,0.65-2.91,0.34-3.92-0.91c-1.79-2.23-3.52-4.5-5.27-6.76
			c-6.39-8.22-12.77-16.44-19.15-24.66c-2.03-2.62-1.6-4.58,1.43-6.03c5.79-2.78,11.53-3.22,17.09,0.64
			c1.52,1.06,2.75,2.42,3.87,3.88c0.38,0.5,0.77,0.99,1.15,1.48c0.09-0.05,0.18-0.1,0.26-0.14c0-0.25,0-0.51,0-0.76
			c0-10.28,0-20.56,0-30.85l0.09-9.8c0.54-3.9,3.62-7.04,7.49-7.78c3.76-0.73,7.88,0.94,9.62,4.33
			C106.49,89.89,107.95,91.35,107.91,100.95z"/>
	</g>
</g>
</svg>
