<?xml version="1.0" encoding="utf-8"?>
<!-- Generator: Adobe Illustrator 23.0.0, SVG Export Plug-In . SVG Version: 6.00 Build 0)  -->
<svg version="1.1" id="Capa_1" xmlns="http://www.w3.org/2000/svg" xmlns:xlink="http://www.w3.org/1999/xlink" x="0px" y="0px"
	 viewBox="0 0 200 200" style="enable-background:new 0 0 200 200;" xml:space="preserve">
<style type="text/css">
	.st0{fill:#999999;}
	.st1{fill:none;}
	.st2{fill:#02C1E5;}
	.st3{fill:#0F7A79;}
	.st4{fill:#F6565B;}
	.st5{fill:#F5D339;}
	.st6{fill:#FF6E00;}
	.st7{fill:#B0F5F5;}
</style>
<g>
	<path class="st0" d="M155.53,39.44c5.58,0,10.11,4.57,10.11,10.11v70.62c0,5.58-4.57,10.11-10.11,10.11h-53.01l-37.82,30.28v-30.28
		H44.47c-5.53,0-10.06-4.53-10.11-10.06V49.55c0-5.58,4.57-10.11,10.11-10.11H155.53 M155.53,33.72H44.47
		c-8.73,0-15.83,7.1-15.83,15.83v70.67c0,0.02,0,0.03,0,0.05c0.07,8.67,7.17,15.73,15.83,15.73h14.5v24.56c0,2.2,1.26,4.2,3.24,5.15
		c0.79,0.38,1.63,0.56,2.47,0.56c1.28,0,2.54-0.43,3.57-1.25L104.52,136h51.01c8.73,0,15.83-7.1,15.83-15.83V49.55
		C171.35,40.82,164.25,33.72,155.53,33.72L155.53,33.72z"/>
	<g>
		<rect x="76.35" y="86.37" class="st2" width="10.11" height="10.11"/>
		<rect x="96.52" y="86.37" class="st2" width="10.11" height="10.11"/>
		<rect x="116.69" y="86.37" class="st2" width="10.11" height="10.11"/>
	</g>
</g>
</svg>
