<?xml version="1.0" encoding="utf-8"?>
<!-- Generator: Adobe Illustrator 23.0.0, SVG Export Plug-In . SVG Version: 6.00 Build 0)  -->
<svg version="1.1" id="Capa_1" xmlns="http://www.w3.org/2000/svg" xmlns:xlink="http://www.w3.org/1999/xlink" x="0px" y="0px"
	 viewBox="0 0 200 200" style="enable-background:new 0 0 200 200;" xml:space="preserve">
<style type="text/css">
	.st0{fill:#999999;}
	.st1{fill:none;}
	.st2{fill:#02C1E5;}
	.st3{fill:#0F7A79;}
	.st4{fill:#F6565B;}
	.st5{fill:#F5D339;}
	.st6{fill:#FF6E00;}
	.st7{fill:#B0F5F5;}
</style>
<g>
	<path class="st1" d="M81.52,96.37V74.53H26.96c-3.99,0-7.29,3.27-7.29,7.29v50.97c0.03,3.99,3.3,7.26,7.29,7.26h14.58v21.84
		l27.28-21.84h38.24c3.99,0,7.29-3.27,7.29-7.29v-24.98H92.94C86.65,107.79,81.52,102.67,81.52,96.37z M56.1,116.8h-7.29v-7.29h7.29
		V116.8z M70.65,116.8h-7.29v-7.29h7.29V116.8z M85.2,116.8h-7.29v-7.29h7.29V116.8z"/>
	<path class="st1" d="M118.48,81.82v21.84h12.7l27.28,21.84v-21.84h14.58c3.99,0,7.26-3.3,7.29-7.29V45.4c0-4.03-3.3-7.29-7.29-7.29
		H92.94c-4.03,0-7.29,3.3-7.29,7.29v25.01h21.41C113.35,70.41,118.48,75.53,118.48,81.82z"/>
	<path class="st2" d="M173.04,33.98H92.94c-6.29,0-11.42,5.12-11.42,11.42v25.01h4.12V45.4c0-3.99,3.27-7.29,7.29-7.29h80.11
		c3.99,0,7.29,3.27,7.29,7.29v50.97c-0.03,3.99-3.3,7.29-7.29,7.29h-14.58v21.84l-27.28-21.84h-12.7v4.12h11.26l26.15,20.94
		c0.75,0.6,1.66,0.9,2.58,0.9c0.61,0,1.22-0.13,1.79-0.41c1.43-0.69,2.34-2.13,2.34-3.72v-17.72h10.46
		c6.24,0,11.36-5.11,11.42-11.38c0-0.01,0-0.02,0-0.03V45.4C184.46,39.1,179.34,33.98,173.04,33.98z"/>
	<g>
		<path class="st0" d="M114.35,132.76c0,4.03-3.3,7.29-7.29,7.29H68.82l-27.28,21.84v-21.84H26.96c-3.99,0-7.26-3.27-7.29-7.26
			V81.82c0-4.03,3.3-7.29,7.29-7.29h54.57v-4.12H26.96c-6.29,0-11.42,5.12-11.42,11.42v50.97c0,0.01,0,0.02,0,0.03
			c0.05,6.26,5.17,11.35,11.42,11.35h10.46v17.72c0,1.59,0.91,3.03,2.34,3.72c0.57,0.27,1.18,0.41,1.79,0.41
			c0.92,0,1.83-0.31,2.58-0.9l26.15-20.94h36.79c6.29,0,11.42-5.12,11.42-11.42v-24.98h-4.12V132.76z"/>
		<path class="st0" d="M107.06,74.53c4.03,0,7.29,3.3,7.29,7.29v21.84h4.12V81.82c0-6.29-5.12-11.42-11.42-11.42H85.65v4.12H107.06z
			"/>
		<rect x="114.35" y="103.66" class="st0" width="4.12" height="4.12"/>
		<rect x="81.52" y="70.41" class="st0" width="4.12" height="4.12"/>
	</g>
	<rect x="50.81" y="107.51" class="st2" width="7.29" height="7.29"/>
	<rect x="65.36" y="107.51" class="st2" width="7.29" height="7.29"/>
	<rect x="79.91" y="107.51" class="st2" width="7.29" height="7.29"/>
	<rect x="129.39" y="69.88" class="st2" width="7.29" height="7.29"/>
	<rect x="143.94" y="69.88" class="st2" width="7.29" height="7.29"/>
</g>
</svg>
