<?xml version="1.0" encoding="utf-8"?>
<!-- Generator: Adobe Illustrator 24.0.3, SVG Export Plug-In . SVG Version: 6.00 Build 0)  -->
<svg version="1.1" id="Capa_1" xmlns="http://www.w3.org/2000/svg" xmlns:xlink="http://www.w3.org/1999/xlink" x="0px" y="0px"
	 viewBox="0 0 200 200" style="enable-background:new 0 0 200 200;" xml:space="preserve">
<style type="text/css">
	.st0{fill:#999999;}
	.st1{fill:none;}
	.st2{fill:#02C1E5;}
	.st3{fill:#0F7A79;}
	.st4{fill:#F6565B;}
	.st5{fill:#F5D339;}
	.st6{fill:#FF6E00;}
	.st7{fill:#B0F5F5;}
	.st8{fill:#518D30;}
</style>
<g>
	<path class="st0" d="M170.11,71.33c-3.78-9.37-9.34-17.76-16.52-24.93c-7.18-7.18-15.56-12.73-24.93-16.51
		c-9.73-3.92-20.03-5.73-30.63-5.37c-18.42,0.63-35.95,8.12-49.38,21.1C35.23,58.6,27.16,75.87,25.94,94.25
		c-1,15.12,2.46,29.91,10.03,42.85l-11.03,28.84c-1.01,2.64-0.39,5.52,1.6,7.51c1.36,1.36,3.13,2.08,4.96,2.08
		c0.85,0,1.71-0.16,2.55-0.48l28.84-11.03c12.94,7.57,27.73,11.04,42.85,10.03c18.38-1.22,35.65-9.29,48.63-22.72
		c12.98-13.43,20.47-30.96,21.1-49.38C175.85,91.36,174.04,81.06,170.11,71.33L170.11,71.33z M171.06,101.81
		c-0.59,17.32-7.64,33.81-19.86,46.45c-12.22,12.64-28.47,20.23-45.75,21.38c-14.58,0.97-28.82-2.48-41.2-9.96
		c-0.58-0.35-1.3-0.42-1.93-0.17l-29.84,11.41c-1,0.38-2.05,0.16-2.8-0.6c-0.75-0.76-0.98-1.8-0.6-2.8l11.41-29.84
		c0.24-0.64,0.18-1.35-0.17-1.93c-7.48-12.38-10.93-26.62-9.96-41.2C31.5,77.26,39.1,61.02,51.74,48.8
		c12.64-12.22,29.13-19.27,46.45-19.86c0.83-0.03,1.66-0.04,2.49-0.04c9.1,0,17.95,1.71,26.33,5.1c8.81,3.56,16.71,8.79,23.46,15.54
		c6.75,6.75,11.98,14.65,15.54,23.46C169.7,82.14,171.4,91.84,171.06,101.81L171.06,101.81z M171.06,101.81"/>
	<path class="st8" d="M121.03,81.54c0-9.78-7.96-17.74-17.73-17.74H83.7c-1.22,0-2.21,0.99-2.21,2.21v67.46
		c0,0.59,0.23,1.15,0.65,1.57c0.42,0.41,0.98,0.65,1.56,0.65h0.01c0.18,0,18.1-0.08,23.01-0.08c11.23,0,20.37-9.14,20.37-20.37
		c0-8.86-5.68-16.41-13.59-19.21C118.05,92.82,121.03,87.52,121.03,81.54L121.03,81.54z M103.29,68.23
		c7.34,0,13.31,5.97,13.31,13.31s-5.97,13.31-13.31,13.31c-1.43,0-17.38,0.02-17.38,0.02V68.23H103.29z M122.66,115.24
		c0,8.79-7.15,15.95-15.95,15.95c-3.88,0-15.82,0.05-20.81,0.07V99.34c2.45-0.01,20.81-0.04,20.81-0.04
		C115.51,99.3,122.66,106.45,122.66,115.24L122.66,115.24z M122.66,115.24"/>
	<path class="st8" d="M100.65,36.58c-15.53,0-30.45,5.74-42.01,16.17c-0.91,0.82-0.98,2.22-0.16,3.12c0.82,0.91,2.22,0.98,3.13,0.16
		c10.74-9.69,24.61-15.03,39.04-15.03c32.17,0,58.34,26.17,58.34,58.34c0,14.43-5.34,28.3-15.03,39.04
		c-0.82,0.91-0.75,2.31,0.16,3.13c0.42,0.38,0.95,0.57,1.48,0.57c0.6,0,1.21-0.25,1.64-0.73c10.43-11.56,16.17-26.48,16.17-42.01
		C163.42,64.74,135.26,36.58,100.65,36.58L100.65,36.58z M100.65,36.58"/>
	<path class="st0" d="M137.17,144.8c-10.48,8.43-23.1,12.89-36.52,12.89c-10.65,0-21.07-2.89-30.13-8.37
		c-2.23-1.35-4.8-2.07-7.41-2.07c-1.76,0-3.48,0.32-5.12,0.95l-10.03,3.83L51.8,142c1.59-4.15,1.18-8.72-1.12-12.52
		c-5.48-9.06-8.37-19.48-8.37-30.13c0-13.42,4.46-26.04,12.89-36.52c0.77-0.95,0.61-2.35-0.34-3.11c-0.95-0.77-2.35-0.62-3.11,0.34
		c-8.94,11.11-13.87,25.06-13.87,39.29c0,11.46,3.12,22.67,9.01,32.42c1.59,2.63,1.87,5.78,0.77,8.65l-5.6,14.65
		c-0.31,0.82-0.12,1.74,0.5,2.36c0.62,0.62,1.54,0.81,2.36,0.5l14.65-5.6c1.13-0.43,2.32-0.65,3.53-0.65c1.81,0,3.58,0.49,5.12,1.43
		c9.75,5.9,20.96,9.01,32.42,9.01c14.23,0,28.18-4.92,39.29-13.87c0.95-0.77,1.1-2.16,0.34-3.11
		C139.51,144.19,138.12,144.04,137.17,144.8L137.17,144.8z M137.17,144.8"/>
</g>
</svg>
